<svg xmlns="http://www.w3.org/2000/svg" data-name="Layer 1" viewBox="0 0 700 550"><path d="M380.92408,212.13623s-2.56776-1.54065-4.96433,1.19829c0,0-4.27959-6.08088-22.42507-.815,0,0,2.39657,4.58109,4.10841,4.58109s-3.25249,7.87445-7.87445,7.53208c0,0-7.87446,11.46932-1.883,22.59626,5.90523,10.96684,10.14752,14.4505,16.00487,7.33689a4.44025,4.44025,0,0,1,.59861-.60592c1.6845-1.38912,9.14193-7.16492,11.785-2.85814a4.1984,4.1984,0,0,1,.448,3.17277c-1.20643,5.05264-6.84775,23.66253-23.18744,16.23539,0,0-19.04179-7.14067-14.55046-24.05693a21.12557,21.12557,0,0,1,2.07277-4.91859,13.21655,13.21655,0,0,0,.97873-10.41942,10.44309,10.44309,0,0,0-4.36873-5.92685c-2.06263-1.28659-4.78167-1.86178-6.84139,1.73586a9.95016,9.95016,0,0,0-1.30422,4.91137c-.0039,1.57651.28931,3.51,1.58823,4.43781l-1.58827,3.08131a21.06656,21.06656,0,0,0-3.28186-4.83862,14.38931,14.38931,0,0,1-4.02465-8.21555c-.58152-4.92316.11861-12.27393,5.98465-20.84022,0,0,7.87445-15.7489,22.59626-15.40654S378.18514,194.33312,380.92408,212.13623Z"/><path d="M356.27362 232.67828a27.5375 27.5375 0 017.803-.64291 19.62063 19.62063 0 013.90677.59254 7.9007 7.9007 0 013.5256 1.76221 11.97544 11.97544 0 00-3.679-1.03612c-1.25843-.18089-2.52836-.31253-3.80924-.36982C361.461 232.82539 358.88773 232.81316 356.27362 232.67828zM380.92407 232.43388a7.0154 7.0154 0 00-2.54373 1.40146 3.23864 3.23864 0 00-1.17462 2.36667 7.43208 7.43208 0 00.721 2.68755l1.1195 2.75209a16.63253 16.63253 0 011.43152 5.89952 4.46243 4.46243 0 01-.29092 1.571 3.11954 3.11954 0 01-.97119 1.29063 4.68246 4.68246 0 01-2.94153.69893 4.88792 4.88792 0 002.64325-1.05724 3.10815 3.10815 0 00.8183-2.49734 11.3933 11.3933 0 00-.57593-2.79807c-.28772-.92672-.63172-1.8451-.9982-2.76005-.35172-.92166-.7323-1.83815-1.07474-2.782-.16388-.47652-.33017-.95165-.45874-1.45414a4.06178 4.06178 0 01-.15948-1.60643 3.67535 3.67535 0 011.6239-2.67428A6.39771 6.39771 0 01380.92407 232.43388z"/><path d="M380.92407 212.13623q.481 2.87814.7154 5.78722.26751 2.90448.33059 5.8262c.03021 1.94763.00119 3.89885-.15091 5.85142a16.707 16.707 0 01-1.31274 5.78238.26512.26512 0 01-.04294.06256 23.50841 23.50841 0 00-1.68918 2.03725 8.299 8.299 0 00-.69247 1.12415 1.9893 1.9893 0 00-.25369 1.26638 1.9382 1.9382 0 01.07006-1.34172 8.56015 8.56015 0 01.57267-1.24089 15.32742 15.32742 0 011.54425-2.245l-.04276.06221a11.2483 11.2483 0 00.65762-2.72022c.14838-.93885.20829-1.89746.279-2.85281.11322-1.91766.13293-3.84686.14395-5.77716C381.05273 219.89473 380.968 216.02412 380.92407 212.13623zM370.65305 245.68825a6.72826 6.72826 0 00-.43607 1.15733 2.48257 2.48257 0 00-.07129 1.13606 1.90352 1.90352 0 00.47144 1.0085 6.2879 6.2879 0 00.89184.84769 5.76861 5.76861 0 01-.61032-.21869 3.31214 3.31214 0 01-.54541-.37573 2.05491 2.05491 0 01-.6759-1.18277 2.4698 2.4698 0 01.19653-1.3369A2.82205 2.82205 0 01370.65305 245.68825zM331.1096 236.27315a9.13489 9.13489 0 011.40107 2.46473 6.75046 6.75046 0 01.38836 1.40856 3.84931 3.84931 0 01.04991.76507l-.00486.19715.01152.10692a.37263.37263 0 00.044.20037 1.377 1.377 0 00.7265.69017 5.79481 5.79481 0 001.19421.45243 11.44246 11.44246 0 002.69432.39076 5.66321 5.66321 0 01-2.83094.33868 5.03131 5.03131 0 01-1.451-.37182 2.21107 2.21107 0 01-1.2269-1.1769 1.19493 1.19493 0 01-.08829-.47485l-.00342-.2402.00734-.15009a4.21687 4.21687 0 00-.01394-.621 9.45668 9.45668 0 00-.205-1.30312C331.60841 238.07054 331.35289 237.18619 331.1096 236.27315zM329.52135 239.35445a18.90186 18.90186 0 01-1.6055 3.98361 19.7123 19.7123 0 01-2.41316 3.58882 13.71755 13.71755 0 01-3.28141 2.86894 8.39723 8.39723 0 01-4.12684 1.25521 11.94332 11.94332 0 003.71289-1.87114 18.45307 18.45307 0 002.97157-2.869 33.06746 33.06746 0 002.50192-3.35132C328.04825 241.78528 328.81033 240.59462 329.52135 239.35445zM342.06537 279.41144a15.23 15.23 0 003.04782-1.78372 26.03489 26.03489 0 002.65778-2.2782c.85975-.79384 1.63063-1.68155 2.43124-2.55049l1.16562-1.3458c.37951-.45907.75809-.92167 1.17563-1.36523-.23831.55534-.51563 1.09166-.792 1.63148-.31292.51512-.62081 1.03829-.96487 1.537a18.888 18.888 0 01-2.35666 2.778 14.94589 14.94589 0 01-2.91533 2.21408A8.32438 8.32438 0 01342.06537 279.41144z"/><path d="M324.93954 246.61829a13.882 13.882 0 00-3.11885-3.29627 1.95348 1.95348 0 00-1.88144-.39909 2.81811 2.81811 0 00-1.14607 1.63019 12.22907 12.22907 0 00-.50345 2.17735c-.051.36783-.09611.75065-.12922 1.10451.00187.33685.03149.73269.0652 1.1008a25.85627 25.85627 0 00.83638 4.46392 32.47875 32.47875 0 003.47644 8.46561 38.787 38.787 0 005.60565 7.28676c1.07848 1.09083 2.19954 2.141 3.33708 3.16463 1.18157.97473 2.3104 2.02166 3.54032 2.91655.59336.47927 1.24745.86822 1.867 1.30679.65594.377 1.28559.80548 1.9689 1.12564a18.10353 18.10353 0 004.18056 1.6384 12.26267 12.26267 0 008.68231-.91135 17.2317 17.2317 0 006.56512-6.17647.04764.04764 0 01.06418-.02044.05173.05173 0 01.02051.06373 16.17463 16.17463 0 01-6.29886 6.78879 12.43041 12.43041 0 01-4.50734 1.51144 13.23163 13.23163 0 01-4.75655-.30246 17.27661 17.27661 0 01-4.41368-1.71569c-.70741-.35123-1.34958-.80613-2.02081-1.21225-.62987-.46445-1.29634-.88208-1.894-1.385-1.25272-.94113-2.34944-2.04012-3.50859-3.07251-.59119-.50307-1.09232-1.10337-1.635-1.65665-.523-.57342-1.08908-1.10464-1.5747-1.71106a59.45459 59.45459 0 01-5.5046-7.46977 36.90573 36.90573 0 01-3.95229-8.421 21.97292 21.97292 0 01-.90991-4.60733c-.02608-.40065-.04971-.77447-.041-1.2091.04544-.4119.101-.795.16431-1.189a12.93669 12.93669 0 01.59222-2.30936 3.24776 3.24776 0 011.57991-1.95152 1.92584 1.92584 0 011.33281-.027 3.643 3.643 0 011.08775.59554 12.22256 12.22256 0 012.911 3.65336.04753.04753 0 01-.01774.06484A.05033.05033 0 01324.93954 246.61829zM280.87027 259.55414a7.36378 7.36378 0 013.27968 1.96078 10.11274 10.11274 0 012.18831 3.20165 10.46227 10.46227 0 01.85753 3.76694 10.66727 10.66727 0 01-.09784 1.9116 10.44782 10.44782 0 01-.49613 1.84279c-.22183-.61853-.32194-1.21558-.48491-1.79889-.175-.57989-.27987-1.15709-.47429-1.70892a26.578 26.578 0 00-1.13842-3.21739 23.0992 23.0992 0 00-1.57215-3.01145A28.97117 28.97117 0 00280.87027 259.55414zM285.23236 283.51987c.38527 4.43918.57321 8.87707.69174 13.31454.131 4.43753.145 8.8743.13645 13.31095-.046 4.4364-.11711 8.87265-.30464 13.30813-.175 4.43558-.4211 8.8707-.86593 13.30454-.38775-4.43921-.57676-8.87711-.69473-13.31458-.13046-4.43753-.14453-8.87433-.13347-13.31094.04846-4.43637.11957-8.87262.30764-13.30811C284.545 292.38882 284.79 287.9537 285.23236 283.51987zM376.78091 254.19356q5.49358 3.43716 10.78559 7.16006 2.64867 1.85889 5.254 3.78493l2.58477 1.97447a11.21288 11.21288 0 011.2771 1.11786l.61435.64128.51709.65553a48.75184 48.75184 0 013.658 5.43482q1.657 2.79567 3.225 5.62837 3.099 5.6905 6.38281 11.25394 1.64245 2.784 3.34778 5.53137l1.70062 2.74576a14.38075 14.38075 0 001.78653 2.50891c.72461.7106 1.58737 1.41489 2.338 2.29959a5.47549 5.47549 0 011.51258 3.41617 5.09957 5.09957 0 01-1.59677 3.45138 16.99212 16.99212 0 01-1.289 1.17469c-.40255.32437-.79357.665-1.1762 1.01617-.76969.70694-1.4776 1.4494-2.19776 2.24808-.733.81006-1.49206 1.596-2.2623 2.37283a52.37488 52.37488 0 01-4.94354 4.35153 28.22274 28.22274 0 01-5.74441 3.4433 13.38961 13.38961 0 01-3.35224.92761 7.8105 7.8105 0 01-3.60879-.31359.782.782 0 01-.44306-.344l-.00647-.01077c-.75076-1.24353-1.57238-2.48349-2.40371-3.69711q-1.24563-1.8285-2.60917-3.56931a40.04653 40.04653 0 00-2.92132-3.29654 10.00431 10.00431 0 00-3.57-2.46939l-.00745-.00262a.09989.09989 0 01.05274-.19217 9.68463 9.68463 0 013.99847 2.12493 29.82293 29.82293 0 013.295 3.10727 61.408 61.408 0 015.62439 7.07047l-.44925-.35455a8.34967 8.34967 0 005.59915-.81421 26.27158 26.27158 0 005.24228-3.31006 57.11946 57.11946 0 004.77966-4.155c.7666-.73288 1.52512-1.47693 2.25861-2.2453.7434-.78186 1.54477-1.5802 2.38287-2.30817.421-.36609.85242-.722 1.298-1.06186.40387-.337.78708-.62481 1.12516-.968a3.56706 3.56706 0 001.2037-2.20313 3.8977 3.8977 0 00-1.00354-2.39093c-.61264-.788-1.386-1.50195-2.137-2.35946a7.96473 7.96473 0 01-.55493-.7038l-.43354-.73346-.77987-1.43134L413.61 297.84494q-1.50912-2.86107-3.08268-5.68216c-2.10412-3.75848-4.32193-7.45438-6.72451-11.02939-2.3815-3.56964-4.79758-7.1837-7.37784-10.48173l-.48773-.60982-.50876-.52a9.52 9.52 0 00-1.13132-1.03l-2.514-1.99721-5.07611-3.98555q-5.08722-3.981-10.04373-8.1537a.10023.10023 0 01.11758-.16177z"/><path d="M390.168 286.48706c-1.75052 6.57846-3.4036 13.17337-4.78427 19.794a77.37911 77.37911 0 00-1.48471 9.95215c-.09464 1.60891-.10434 3.38534-.24552 5.10711a29.64516 29.64516 0 01-.87783 5.19931 27.72742 27.72742 0 01-4.96131 9.2403c-1.02884 1.37207-2.119 2.69888-3.13956 4.03171-.49093.662-.98907 1.31881-1.42984 2.02722-.4728.68329-.90017 1.40173-1.32556 2.12274a84.16424 84.16424 0 00-4.48388 9.05817c-1.3841 3.09423-2.57752 6.27374-3.74393 9.47287a83.21078 83.21078 0 016.86334-19.28864 34.66455 34.66455 0 012.7189-4.445c1.00834-1.39447 2.04145-2.72479 3.01465-4.10077a26.32422 26.32422 0 004.56159-8.65457 27.68908 27.68908 0 00.85885-4.83532c.159-1.66639.15381-3.29343.307-5.076a67.55048 67.55048 0 011.85114-10.15329A158.23749 158.23749 0 01390.168 286.48706zM465.6123 375.57031a1.5 1.5 0 01-.002-3l34.918-.0459h.00195a1.5 1.5 0 01.002 3l-34.918.0459z"/><rect width="44.029" height="3" x="199.468" y="374.783" transform="rotate(-.541 221.483 376.284)"/><path d="M365.51754 239.06914a1.42738 1.42738 0 000-2.85306 1.42738 1.42738 0 000 2.85306zM403.27179 386.95218a46.13658 46.13658 0 0016.69131 7.06824 38.06869 38.06869 0 009.01081.64541 39.61377 39.61377 0 008.89157-1.50891 55.41077 55.41077 0 0016.15842-7.98318 28.22943 28.22943 0 003.48727-2.77732 37.24932 37.24932 0 003.06158-3.27548 41.13947 41.13947 0 004.92218-7.47406l-.0957.40454.00015-.00979.00028-.0214a.87833.87833 0 01.09439-.38128 42.27334 42.27334 0 002.8772-7.22391 38.14006 38.14006 0 001.40829-7.67249l.00421-.05468.00623-.035c.01443-.05114-.00281-.02685.01376.06626l-.00839-.15747a36.33933 36.33933 0 00-2.1676-15.49356 37.19894 37.19894 0 00-8.53025-13.14594 38.96472 38.96472 0 00-55.84573 1.052 39.51813 39.51813 0 00-8.17569 13.19174 41.02988 41.02988 0 00-2.49069 15.49955.10287.10287 0 01-.09982.10586.10628.10628 0 01-.10557-.09378 37.93233 37.93233 0 011.501-15.922 38.56382 38.56382 0 017.981-14.05032 39.10234 39.10234 0 0113.0708-9.6579 38.54038 38.54038 0 0115.89975-3.436 38.82506 38.82506 0 0129.00931 12.5936 41.6936 41.6936 0 018.371 13.64431 42.82927 42.82927 0 012.67719 15.81195l-.00837-.15707a.92738.92738 0 01-.00625.36584l.0104-.08926a38.9091 38.9091 0 01-1.058 8.0191 36.85062 36.85062 0 01-2.71646 7.64414l.0946-.40231.00013.00979a.85045.85045 0 01-.08689.38742l-.00888.01752a37.65149 37.65149 0 01-5.15317 7.82928 39.03516 39.03516 0 01-3.2481 3.38764 31.84878 31.84878 0 01-3.73014 2.87894 54.50668 54.50668 0 01-16.754 7.918 38.69946 38.69946 0 01-18.44919.45118 45.16927 45.16927 0 01-16.6207-7.79972.10291.10291 0 01.1167-.16946z"/><path d="M412.09271 320.88153c-.27435.73563-.50519 1.481-.73742 2.223-.22785.74366-.45066 1.4863-.65073 2.23548-.22244.74035-.40225 1.49405-.57913 2.24905l-.57917 2.24277.02921-.18756a.75778.75778 0 01-.04858.2485.77348.77348 0 01-.16309.26145.78194.78194 0 01-.55527.24118l.72882-.55451c-.42135 2.17188-.94131 4.309-1.38455 6.46689-.406 2.16638-.81445 4.33356-1.15707 6.51532-.35639 2.18042-.71009 4.362-1.00852 6.561-.3406 2.19431-.662 4.3982-1.04449 6.60749a56.20414 56.20414 0 01-.19785-6.71451 65.22837 65.22837 0 01.46024-6.70654c.27945-2.22474.61651-4.44721 1.10583-6.64023.223-1.101.522-2.187.82941-3.26865.30869-1.08118.59348-2.168.92767-3.23923l.72907-.55471a.76279.76279 0 00-.54111.23565.75387.75387 0 00-.159.25482.73163.73163 0 00-.047.24085l.02926-.188c.55259-1.48 1.06272-2.96484 1.71823-4.40256A25.7346 25.7346 0 01412.09271 320.88153zM450.90729 320.8811a40.8375 40.8375 0 013.3605 7.39148c.48407 1.27158.82755 2.58332 1.24545 3.8779.37088 1.30576.67926 2.62793 1.01932 3.94416a102.357 102.357 0 012.279 16.10934 130.47538 130.47538 0 01.01273 16.24771c-.1658 2.70105-.469 5.39252-.72739 8.08087-.41482 2.67536-.77435 5.352-1.25085 8.00925.04373-2.70664.21618-5.39295.312-8.08222l.16818-8.0606c-.01379-1.34265-.02072-2.68412-.01086-4.02478l.00677-2.01081-.07153-2.009-.10629-4.01681-.24839-4.00754a146.74175 146.74175 0 00-1.82653-15.93747l-.77173-3.93814c-.30942-1.2995-.55841-2.62079-.92493-3.90766A51.50008 51.50008 0 00450.90729 320.8811zM430.62269 373.71155a9.107 9.107 0 001.56-2.1c-.01.9-.03 1.79-.05 2.69q-.195 9.75-.75 19.5-.555-9.75-.75-19.5C430.6327 374.10156 430.62269 373.91156 430.62269 373.71155zM430.89271 367.28155s.66-.79 1.38-1.83c-.01 1.01-.02 2.03-.04 3.04A3.91349 3.91349 0 00430.89271 367.28155zM432.34272 353.83154v1.92l-.03 4.71a8.26142 8.26142 0 00-1.86.37c-.01-1.7-.02-3.39-.03-5.08v-1.92c.04-12.69.22-25.37.96-38.06C432.11268 328.46155 432.30269 341.14154 432.34272 353.83154z"/><path d="M395.91656 338.53635a81.4063 81.4063 0 0117.33561-5.48227 95.3758 95.3758 0 0118.14682-1.9274c3.05047-.09082 6.096.15381 9.13949.32358 1.5156.16919 3.02622.38925 4.53781.58172.75455.10623 1.513.18405 2.26355.31369l2.23664.48014a75.14623 75.14623 0 0117.26434 5.71054q-2.19059-.62435-4.34689-1.29682l-2.15787-.66336c-.72195-.2095-1.46906-.33636-2.2009-.50824l-4.38714-1.02121c-1.47306-.28171-2.96018-.49487-4.43659-.74557l-2.21631-.36276c-.74191-.09791-1.48977-.1568-2.23394-.23719-1.49054-.14407-2.97742-.31613-4.46778-.43786-2.99194-.11036-5.97787-.33841-8.97308-.217a122.03214 122.03214 0 00-17.90289 1.47723l-4.43955.76892c-1.469.31049-2.94934.58679-4.41492.92651C401.71518 336.84506 398.80948 337.645 395.91656 338.53635zM430.49271 376.95154l9.19748-1.18668c3.04269-.4292 6.07849-.88486 9.095-1.43185 3.02093-.51865 6.0292-1.13135 9.03238-1.77548 1.48715-.37446 2.988-.7125 4.497-1.04453l1.13779-.23376 1.1185-.29093c.74841-.19092 1.5058-.36816 2.27191-.53677q-1.03281.53444-2.09195 1.03793a21.55015 21.55015 0 01-2.14962.92212c-1.45615.5477-2.92041 1.08936-4.39841 1.59457a72.4884 72.4884 0 01-9.08408 2.21741A65.24075 65.24075 0 01430.49271 376.95154zM392.37269 354.79156q2.955-.18007 5.91-.3a13.32406 13.32406 0 00-1.58.53C395.2527 354.95154 393.8127 354.87152 392.37269 354.79156zM470.39271 354.79156q-9.75.555-19.5.75c-6.19.14-12.37.18994-18.55.21h-1.92c-.78 0-1.55-.01-2.33-.01.08-.82995-.33-1.38-1.49-1.44a4.34545 4.34545 0 00-2.82.94c-.18.14-.38.29-.61005.46q-9.10492-.06-18.19995-.35a1.62273 1.62273 0 00-.62-1.1c8.69-.3 17.38-.39 26.07-.42h1.92c6.18.02 12.36.07 18.55.21Q460.64271 354.22156 470.39271 354.79156z"/><path d="M408.8127 329.62152a.0098.0098 0 01-.01.01 25.80175 25.80175 0 00-2.15 5.51c-.01.02-.01.05-.02.07-.75 2.89-.38 3.42-1.37 6.26995-.56 1.61005-1.06 2.54-.78 3.87006a15.30254 15.30254 0 001.01 2.43c.12.25.24.52.38.82.69 1.52.86 1.87994.71 2.34-.19.56-.63.63-1.44 1.12a5.86916 5.86916 0 00-.81.57 8.88211 8.88211 0 00-1.32 1.22 16.8306 16.8306 0 00-8.55 2.23c-.62.35-1.29.7-2.01 1.07h-.01c-.03-.43-.04-.86-.06-1.29-.01-.36-.01-.71-.01-1.07a38.885 38.885 0 013.54-16.26l.01-.01h.01a37.83064 37.83064 0 013.36005-5.91c4.35-4.24 9.04-6.44 10.6-6.43a.65889.65889 0 01.47.14C410.71272 326.67151 409.87269 327.63153 408.8127 329.62152zM470.39271 354.79156c0 .33 0 .66-.02.99 0 .28-.02.55-.03.83 0 .05-.01.1-.01.15a8.46572 8.46572 0 01-.05.87 38.61924 38.61924 0 01-3.89 14.37.3553.3553 0 01-.09.04v.01a2.68266 2.68266 0 01-.83.24 2.38679 2.38679 0 01-1.86005-.62c-.01-.01-.02-.03-.04-.04-.81-.89-.16-2.13-.42-3.99-.22-1.54-1.03-2.63-2.64-4.8a21.968 21.968 0 00-2.34-2.8c-.59-.57-1.13995-.92-1.53-.76-.49.22-.64 1.26-.46 2.02.27 1.14 1.19 1.24 1.39 2.16.27 1.21-.96 2.61-2.01 3.25a4.09076 4.09076 0 01-4.02.31c-1.44-.84-1.4-2.63-2.17005-2.63-.61.01-1.15 1.13-1.24 2.01a2.80117 2.80117 0 001.39 2.79c.99.42 1.63-.45 2.79 0a2.08666 2.08666 0 011.39 1.55c.05.95-1.25 1.69-2.94 2.63-1.93 1.07-2.53 1.02-4.8 2.17-.22.11-.42.21-.61.31a11.79726 11.79726 0 00-2.48 1.54c-1.56 1.28-1.41 1.85-2.94 3.1a7.62306 7.62306 0 01-3.56 1.86005c-1.21.2-1.46-.17-3.56-.31a13.97485 13.97485 0 00-1.43-.03 26.47084 26.47084 0 00-2.75.18 21.95392 21.95392 0 00-3.17.55c5.36-2.73 6.07-6.86 3.84-7.84 0 0 6.34-4.81 1.59-7.62 0 0 7.68-9.14-.99-6.28a8.8136 8.8136 0 00-2.04 1.01c-.27.17-.57995.38-.93.6l-1.03-2.62v-.01c2.03-2.75994 3.39-5.55.7-5.68a4.34545 4.34545 0 00-2.82.94c-.62.47-1.51 1.13-2.63 1.89l-2.27-2.34a6.47575 6.47575 0 01-.93-2.78 7.85894 7.85894 0 012.32-5.88 10.98619 10.98619 0 015.26-3.1 10.31373 10.31373 0 014.96-.62c.28.05.58.11.89.19.98.23 1.99.57 2.51.74a9.49292 9.49292 0 002.79.78c1.26.06 1.61005-.32 2.16 0 .69.38.58 1.18 1.09 3.09.51 1.89.93 3.49 2.01 3.87.81.28 1.25-.38 2.17 0 .6.25.6.61 1.54 1.55.83.82 1.25 1.23 1.86 1.39a2.93549 2.93549 0 003.1-1.24c.12-.21.34-.65.15-2.47-.23-2.3-.34-3.45-1.08-4.18-.9-.89-1.6-.24-3.72-.93-2.43-.79-2.25-1.89-4.95-2.94-1.81-.7-2.29-.37-3.71-1.24-1.15-.7-2.61-2-2.33-2.79.31-.84 2.31-.18994 3.1-1.38995.62-.93-.24-1.84.46-3.1.41-.72 1.26-1.41 1.86-1.23.66.19.41 1.26 1.24 2.63a6.11609 6.11609 0 003.25 2.47c1.01.37 2.26.83 3.25.16.88-.59 1.37-1.94.93-2.63-.57-.89-2.3-.13-2.79-.93a1.52976 1.52976 0 01.01-1.21 2.80464 2.80464 0 011.85-1.89c.51-.08 1.03.11005 4.03 2.63.16.14.32.27.46.39l.01.01c1.59 1.35 1.88 1.65 2.47 1.62a1.82162 1.82162 0 00.57-.13 2.982 2.982 0 00.86005-.55 7.4973 7.4973 0 001.66-2.42c.51-1.18006.31-1.66.62-1.86005.72-.46 3.29 1.08 5.99 3.85a36.71158 36.71158 0 012.04 3.88 38.73984 38.73984 0 013.46 13.52c.03.45.05.91.07 1.37C470.3827 353.87152 470.39271 354.33154 470.39271 354.79156zM356.27362 148.932a62.049 62.049 0 011.28879 6.9028c.33032 2.30826.54394 4.62513.735 6.94365.15375 2.32129.28248 4.64443.29508 6.97612a61.35605 61.35605 0 01-.26468 7.01743 61.35639 61.35639 0 01-1.29178-6.90257c-.32974-2.30831-.54339-4.62517-.732-6.94388-.15131-2.32148-.28-4.64461-.29209-6.97635A62.04237 62.04237 0 01356.27362 148.932zM370.6925 178.692a66.77 66.77 0 011.98514-7.0104c.75409-2.29959 1.6167-4.55549 2.50028-6.80294.91827-2.23348 1.85986-4.45757 2.90945-6.63817a66.02268 66.02268 0 013.43009-6.4285 66.02019 66.02019 0 01-1.9824 7.01152c-.75457 2.29939-1.61715 4.5553-2.503 6.80182-.92056 2.23256-1.86212 4.45667-2.9122 6.63705A66.76555 66.76555 0 01370.6925 178.692zM334.36209 154.212a56.82991 56.82991 0 013.37253 5.81017c1.03285 1.97642 1.9584 3.99945 2.86322 6.03151.8705 2.047 1.718 4.10394 2.45866 6.2073a56.19226 56.19226 0 011.94388 6.431 56.197 56.197 0 01-3.37526-5.809c-1.03235-1.97664-1.95793-3.99966-2.86047-6.0327-.86824-2.04794-1.71573-4.1049-2.45593-6.20849A56.82775 56.82775 0 01334.36209 154.212zM241.22821 316.78522a18.19065 18.19065 0 00-2.724-.47638 2.89672 2.89672 0 00-1.29184.12912c-.39322.14245-.26919.57406-.05157.95a9.9429 9.9429 0 001.80688 2.013c.67406.62036 1.38873 1.211 2.11467 1.76492a.30982.30982 0 01.05838.43424.31823.31823 0 01-.28695.11923 9.33385 9.33385 0 01-5.10842-2.24515 7.71788 7.71788 0 01-1.77894-2.23468 4.97362 4.97362 0 01-.50164-1.40551 2.053 2.053 0 01.01711-.86255 1.24547 1.24547 0 01.26214-.49137c.03818-.06949.0739-.09253.13089-.20059.83458-1.51861 1.54653-3.236 2.27112-4.88321l2.12781-5.01144c.71352-1.67478 1.4362-3.32895 2.048-5.024.62947-1.69479 1.14052-3.41147 1.73223-5.14435l1.73518-5.18124c.59009-1.72214 1.313-3.39826 1.9624-5.09784a101.11082 101.11082 0 019.926-19.417 45.22558 45.22558 0 017.098-8.34347c.3403-.30858.67194-.62745 1.02-.92777l1.09068-.84877a22.72067 22.72067 0 012.269-1.588 16.41342 16.41342 0 015.16867-2.225l-.10242.02443a41.62134 41.62134 0 019.6046-1.66949c3.22031-.26192 6.44575-.3454 9.66537-.34851q4.83006.002 9.65242.18791c3.2145.15193 6.4215.34509 9.63291.60714l-.33714.11445a35.68809 35.68809 0 003.42739-4.07991l1.60518-2.17727a6.82007 6.82007 0 011.97834-1.99789 7.62956 7.62956 0 015.42311-.81989 13.41591 13.41591 0 015.05 2.0272.05551.05551 0 01.01589.07691.05963.05963 0 01-.07828.01514 13.183 13.183 0 00-5.04123-1.75018 7.40493 7.40493 0 00-5.04053.94528 6.17283 6.17283 0 00-1.74563 1.89407L314.49269 245.88a32.32477 32.32477 0 01-3.447 4.29967.40282.40282 0 01-.30737.1164l-.0301-.00185c-3.19385-.19518-6.40128-.32295-9.60376-.40884-3.203-.10119-6.40662-.15429-9.60791-.13889-3.20176.00879-6.39823.14038-9.58213.33968a40.73527 40.73527 0 00-9.35052 1.50508l-.06749.01747-.03531.007a16.75358 16.75358 0 00-4.81821 2.00676 21.84674 21.84674 0 00-2.23085 1.48125l-1.081.79844c-.3464.28444-.67784.58835-1.01782.88167a23.27371 23.27371 0 00-1.97331 1.83749c-.61844.65424-1.27776 1.27233-1.8645 1.95728-1.14847 1.39168-2.35013 2.74541-3.35884 4.251a81.7335 81.7335 0 00-9.94539 19.26948c-.59185 1.71543-1.256 3.40387-1.78746 5.13812l-1.56209 5.21122c-.53279 1.72287-.98485 3.51437-1.62093 5.22888-.60534 1.73065-1.32176 3.41626-2.01576 5.09161-.6916 1.68225-1.43425 3.3432-2.17027 5.00852-.76126 1.66681-1.45453 3.31125-2.3916 4.96707a2.69444 2.69444 0 01-.26015.35641c.00635.05594-.04083.01865-.0419.10926a1.25755 1.25755 0 00-.00307.48748 4.16357 4.16357 0 00.40172 1.15436 7.50989 7.50989 0 001.5565 2.0416 8.6273 8.6273 0 004.65535 2.20993l-.22854.55337c-.73215-.59478-1.43171-1.21005-2.10436-1.86758a10.01746 10.01746 0 01-1.78818-2.21387 1.82288 1.82288 0 01-.21824-.74777.73046.73046 0 01.482-.685 3.10489 3.10489 0 011.45352-.08725 18.3482 18.3482 0 012.72957.62229.05559.05559 0 01.038.06884A.05659.05659 0 01241.22821 316.78522z"/><path d="M432.19037,365.39481a16.54754,16.54754,0,0,0,1.17636-2.04273,6.02,6.02,0,0,0,.40131-1.0863,1.76912,1.76912,0,0,0,.01828-1.0651.88847.88847,0,0,0-.79438-.51159,3.86347,3.86347,0,0,0-1.11865.0357,12.04046,12.04046,0,0,0-2.23331.63309,10.3704,10.3704,0,0,0-2.02356,1.13992c-.65872.44309-1.333.86829-2.01443,1.28247-.68384.411-1.375.81192-2.0932,1.17578a9.38658,9.38658,0,0,1-2.30707.89411.359.359,0,0,1-.33371-.597l.01682-.01773a56.28359,56.28359,0,0,0,4.65319-5.51364l-.08892.26965-.00013-.00979a.43484.43484,0,0,1,.08075-.25849l.007-.00979c.44385-.62421.86728-1.26145,1.23969-1.91376a6.30029,6.30029,0,0,0,.80273-1.97934c.09421-.6824-.12515-.88888-.8175-.98675a3.53572,3.53572,0,0,0-1.95883.3991,5.16517,5.16517,0,0,0-.885.5893c-.31235.24481-.62949.47546-.948.702-.63989.45217-1.26175.92709-1.91709,1.36071-1.30178.8779-2.632,1.71152-4.00244,2.48313a39.6023,39.6023,0,0,1-8.70062,3.71618,23.78871,23.78871,0,0,1-4.73666.80268,16.2036,16.2036,0,0,1-4.85587-.48227.74364.74364,0,0,1-.39194-1.17908l.01187-.01456,3.79679-4.75552,1.865-2.34088a.92467.92467,0,0,0,.12918-.7981.84726.84726,0,0,0-.18866-.34027,1.29148,1.29148,0,0,0-.17413-.1514.82278.82278,0,0,0-.16657-.09582,1.09114,1.09114,0,0,0-.463-.07849c-.1969-.00855-.47769-.00485-.70752-.00043-.483.01151-.96478.04666-1.4437.10187a13.92342,13.92342,0,0,0-2.827.623c-.45893.16068-.90946.29959-1.37589.475-.44476.17612-.88193.37692-1.31051.59769l-2.67869,1.44256a.76451.76451,0,0,1-.358.09192l-.0216-.00009-.0098,0,.37515-.08963c-5.04223,2.51871-10.13031,4.74225-14.92834,7.51575L376.084,366.46a19.56776,19.56776,0,0,1-6.12082,2.30841,21.42988,21.42988,0,0,1-4.34213.42121c-1.4794-.01069-2.8591-.186-4.24808-.28763l-16.70031-1.39771-16.69469-1.4656c-11.13037-.96274-22.26144-1.94342-33.39688-2.796l-4.175-.274c-.69872-.04727-1.38622-.07019-2.072-.0896a2.50251,2.50251,0,0,1-1.19136-.27753,2.74783,2.74783,0,0,1-.8811-.80566,10.492,10.492,0,0,1-1.467-4.06745,37.339,37.339,0,0,1-.50357-4.19809,123.04575,123.04575,0,0,1,.2955-16.79516l.219.321c-3.84451-1.18185-7.68571-2.39621-11.42013-3.90539a118.53965,118.53965,0,0,1-11.00359-4.97205c-3.57933-1.84485-7.06688-3.865-10.52721-5.89178-3.46167-2.00647-6.95449-4.01712-10.74755-5.05124l.6578-.49869q.01133,16.59585.70171,33.18967c.24026,5.52594.54687,11.04867.99954,16.55386.0979,1.37811.23556,2.7511.36449,4.125q.18123,2.06292.4297,4.11447c.15817,1.3721.28081,2.75086.534,4.04471a22.04658,22.04658,0,0,0,1.08685,3.83807A24.19449,24.19449,0,0,0,256.07982,394.535a28.26864,28.26864,0,0,0,7.368,3.11591,30.63369,30.63369,0,0,0,3.94252.777c1.3388.16491,2.73517.27466,4.09981.41476l4.11646.39469,4.12654.267c2.74905.21442,5.5056.27353,8.25979.38544,2.75405.12595,5.51207.07529,8.26809.122,2.75529-.06754,5.51371-.05826,8.26664-.20566a231.51768,231.51768,0,0,0,32.84781-3.70163c5.414-1.00485,10.85994-2.15118,16.33925-3.0621,5.47763-.92807,10.96811-1.70606,16.461-2.45075,10.98358-1.50415,21.988-2.781,32.9743-4.15231,5.48813-.703,10.98737-1.39151,16.41364-2.36508l2.01855-.40781c.67466-.133,1.30112-.35278,1.95652-.52347.626-.24594,1.24652-.51776,1.86071-.799a14.81757,14.81757,0,0,0,1.73844-1.03524,8.18732,8.18732,0,0,0,2.65976-2.91861,3.36522,3.36522,0,0,0,.3927-1.846,1.74155,1.74155,0,0,0-.98734-1.41538.25025.25025,0,0,1-.06747-.409l.01587-.01483a21.44455,21.44455,0,0,0,1.71255-1.57868,7.60377,7.60377,0,0,0,1.29559-1.90738,2.84355,2.84355,0,0,0,.17878-2.17712,3.4144,3.4144,0,0,0-1.51068-1.64908.12992.12992,0,0,1-.04444-.17832l.01081-.01544,1.39654-1.80426.005-.00644a.09987.09987,0,0,1,.15945.12027l-1.36334,1.85556-.03357-.19348a3.69571,3.69571,0,0,1,1.67608,1.75669,3.18819,3.18819,0,0,1-.12872,2.4414,8.00142,8.00142,0,0,1-1.31256,2.04471,21.6108,21.6108,0,0,1-1.73859,1.68469l-.05157-.42361a2.27253,2.27253,0,0,1,1.33142,1.7984,3.92254,3.92254,0,0,1-.39246,2.17166,8.81617,8.81617,0,0,1-2.78942,3.23444,15.53921,15.53921,0,0,1-1.7988,1.13418c-.6344.31156-1.27857.61325-1.93186.88794-.67819.1987-1.359.45136-2.03952.60315l-2.04257.46372c-5.45959,1.07727-10.945,1.85955-16.42895,2.65908l-32.90192,4.61591c-5.47452.80139-10.94418,1.636-16.37753,2.61609-2.72165.45813-5.425,1.04471-8.13285,1.57025-2.70547.55869-5.425,1.13834-8.15692,1.6459a233.56811,233.56811,0,0,1-33.12591,3.80927,221.68678,221.68678,0,0,1-33.33-1.00763c-1.38885-.15115-2.75383-.265-4.16206-.44687a32.63851,32.63851,0,0,1-4.19627-.85306,30.2384,30.2384,0,0,1-7.862-3.38159,26.08708,26.08708,0,0,1-10.91234-12.94073,23.87954,23.87954,0,0,1-1.14907-4.1503c-.2669-1.42731-.38166-2.81174-.52852-4.191q-.22611-2.07537-.37978-4.15274c-.112-1.38462-.23268-2.76877-.31325-4.15421-.38373-5.53973-.61981-11.08224-.7894-16.62457q-.501-16.62877-.272-33.25549l.00014-.01038a.51517.51517,0,0,1,.5217-.50858.53572.53572,0,0,1,.13617.02015c3.97207,1.14532,7.48193,3.24856,10.92239,5.30191,3.44432,2.07016,6.86574,4.15045,10.42,5.99649a117.82794,117.82794,0,0,0,10.91324,4.99734c3.706,1.51963,7.52312,2.74732,11.34555,3.94367a.31355.31355,0,0,1,.21915.32132,114.48239,114.48239,0,0,0-.21622,16.69088,36.66293,36.66293,0,0,0,.521,4.11414,9.90549,9.90549,0,0,0,1.35614,3.75015,2.00925,2.00925,0,0,0,.64641.59406,1.66794,1.66794,0,0,0,.82536.17749c.71048.01465,1.41895.03409,2.11421.07647l4.18926.23447c11.15907.66531,22.30467,1.4505,33.45187,2.23361l16.71817,1.2,16.70914,1.31061c1.39609.09632,2.79556.26068,4.1113.26a19.65847,19.65847,0,0,0,3.98147-.40713,19.25853,19.25853,0,0,0,3.80429-1.20984,18.39211,18.39211,0,0,0,1.78367-.89765l1.82122-1.04544c4.902-2.79074,10.08567-5.01681,15.05115-7.45883l.01163-.00571a.83157.83157,0,0,1,.36392-.084l.0098,0-.37925.09174,2.69046-1.42649c.47492-.24081.96225-.461,1.46219-.65524.484-.17914,1.00376-.33987,1.50421-.509a15.52481,15.52481,0,0,1,3.11216-.66171c.52935-.05768,1.06082-.09281,1.59225-.102.27731-.00266.50412-.00675.81415.00665a2.66256,2.66256,0,0,1,1.02.21268,2.40337,2.40337,0,0,1,.489.287,2.843,2.843,0,0,1,.39234.35483,2.42094,2.42094,0,0,1,.53439.98315,2.50579,2.50579,0,0,1-.3642,2.10431l-1.94116,2.4101-3.8306,4.73483-.38-1.19342a15.33806,15.33806,0,0,0,4.37927.48889,22.404,22.404,0,0,0,4.45047-.68429,38.33736,38.33736,0,0,0,8.46213-3.46213c1.3501-.73209,2.66858-1.52957,3.95706-2.36908.64774-.41373,1.26923-.87332,1.90552-1.30777.31833-.21881.63315-.44022.93609-.67023a6.29927,6.29927,0,0,1,1.0654-.67981,4.58189,4.58189,0,0,1,2.55689-.468,2.05041,2.05041,0,0,1,1.36831.65725,1.84735,1.84735,0,0,1,.31522,1.50711,7.14305,7.14305,0,0,1-.95779,2.31046,21.78031,21.78031,0,0,1-1.33826,1.96835l.08765-.26794-.00013.00979-.00018.01352a.42826.42826,0,0,1-.0889.2565,57.04377,57.04377,0,0,1-4.86651,5.48606l-.31687-.61463a16.41582,16.41582,0,0,0,4.20935-1.87762c.683-.3924,1.36017-.79611,2.02753-1.22144A10.87906,10.87906,0,0,1,429.46182,360.9a12.4404,12.4404,0,0,1,2.34992-.60324,4.23557,4.23557,0,0,1,1.2478.00431,1.25829,1.25829,0,0,1,1.0585.77292,2.07442,2.07442,0,0,1-.04437,1.27319,6.30684,6.30684,0,0,1-.45731,1.12616,16.768,16.768,0,0,1-1.26132,2.03491.1.1,0,0,1-.16467-.11346Z"/><path d="M421.45712 365.95016c-1.50857.8841-3.03067 1.69932-4.59631 2.44822a26.09348 26.09348 0 01-4.84216 1.84753 25.83251 25.83251 0 004.5762-2.33591c1.45526-.89932 2.87741-1.87185 4.24118-2.88247l.00769-.00568a.55714.55714 0 01.66342.89526A.5751.5751 0 01421.45712 365.95016zM431.22339 367.73389c-2.585 1.75808-5.20209 3.44433-7.88562 5.03537-1.34393.78988-2.69751 1.56537-4.09717 2.25656a22.93718 22.93718 0 01-2.13415.9599 7.69925 7.69925 0 01-1.10981.371 4.47422 4.47422 0 01-1.15127.17789 4.43184 4.43184 0 001.13189-.24463 7.61452 7.61452 0 001.07547-.4325 22.75016 22.75016 0 002.05677-1.07687c1.34567-.7674 2.64419-1.61789 3.93124-2.48148 2.56732-1.73657 5.07575-3.57357 7.52475-5.462l.00519-.004a.55643.55643 0 01.67956.88129zM429.66113 375.33182a26.81168 26.81168 0 01-3.16885 1.99365 31.72609 31.72609 0 01-3.34692 1.584 30.29124 30.29124 0 01-7.08365 1.94828 30.009 30.009 0 006.85452-2.455 31.04082 31.04082 0 003.15012-1.79449 26.02721 26.02721 0 002.88095-2.12934l.01754-.01523a.55683.55683 0 11.72931.84162C429.68375 375.31436 429.672 375.3237 429.66113 375.33182zM402.6123 333.53125a.501.501 0 01-.417-.22363l-4.31738-6.52149a.50026.50026 0 11.834-.55273l4.31739 6.52148a.50116.50116 0 01-.14063.69336A.49473.49473 0 01402.6123 333.53125zM424.8418 317.23145a.50106.50106 0 01-.417-.22364l-4.31835-6.52148a.50026.50026 0 01.834-.55274l4.31836 6.52149a.4999.4999 0 01-.417.77637z"/></svg>